<?xml version="1.0" encoding="utf-8"?>
<!-- Generator: Adobe Illustrator 18.1.0, SVG Export Plug-In . SVG Version: 6.00 Build 0)  -->
<svg version="1.1" id="Layer_1" xmlns="http://www.w3.org/2000/svg" xmlns:xlink="http://www.w3.org/1999/xlink" x="0px" y="0px"
	 viewBox="0 0 367.9 251.1" enable-background="new 0 0 367.9 251.1" xml:space="preserve">
<linearGradient id="SVGID_1_" gradientUnits="userSpaceOnUse" x1="0" y1="99.703" x2="367.901" y2="99.703">
	<stop  offset="0" style="stop-color:#154476"/>
	<stop  offset="0.3247" style="stop-color:#467CB7"/>
	<stop  offset="0.6501" style="stop-color:#467CB7"/>
	<stop  offset="1" style="stop-color:#154476"/>
</linearGradient>
<path fill="url(#SVGID_1_)" d="M149.7,5.2C51.4,27.4-13.3,113.5,2.3,199.4c1.1-7,2.7-13.9,4.7-20.8c9.6-68.9,67.6-130.2,148.3-148.4
	c86.7-19.5,171.2,17.1,205.4,83.9c2.5,3.5,4.9,7,7.1,10.6c-0.1-0.5-0.2-1-0.3-1.5C350.9,49.2,278.9,0,196.4,0
	C181.1,0,165.4,1.7,149.7,5.2"/>
<path fill="#BCC2C9" d="M157.6,46.5C82.2,63.4,25.7,116.3,7,178.6c9.6-68.9,67.6-130.2,148.3-148.4c86.7-19.5,171.2,17.1,205.4,83.9
	C319.3,57.2,239.4,28,157.6,46.5"/>
<path fill="#4E80B7" d="M348.6,177.6h-34.6v-68h-15.4v81.3h50V177.6z M260,156.6h28.6v-12.2H260v-22.2h36.3v-12.6h-51.4v81.3H260
	V156.6z M221.7,122.2h21.6v-12.6h-58.9v12.6H206v68.7h15.7V122.2z M169.3,174.7c-3,3.4-6.7,5.1-10.9,5.1c-5.4,0-9.7-2.5-12.9-7.5
	c-3.3-5-4.9-12.5-4.9-22.3c0-9.7,1.5-17.1,4.6-22.2c3-5.1,7.3-7.6,12.8-7.6c8.5,0,14,6.1,16.5,18.4l13.6-1.4
	c-1.4-9.2-4.8-16.3-10.1-21.3c-5.4-5-12.1-7.4-20.1-7.4c-10.3,0-18.4,3.9-24.2,11.6c-5.9,7.8-8.8,17.8-8.8,30.2
	c0,7.7,1.3,14.7,3.8,21.1c2.5,6.4,6.1,11.5,10.7,15.2c4.6,3.7,10.6,5.6,18.1,5.6c8.8,0,15.9-2.6,21.3-7.9c5.4-5.3,8.6-12,9.4-20.1
	l-13.6-1.5C174.1,167.3,172.4,171.4,169.3,174.7 M76.8,159.8l11.8-36.3l11.8,36.3H76.8z M99.3,109.6h-18l-27,81.3h12.5l6.4-19.3
	h31.3l6.5,19.3h15.7L99.3,109.6z"/>
<rect x="51.6" y="216.7" fill="none" width="303.1" height="29.7"/>
<text transform="matrix(1 0 0 1 51.5792 240.3475)" font-family="'ArialMT'" font-size="33.0075">Assessment System</text>
</svg>
