<?xml version="1.0" encoding="utf-8"?>
<!-- Generator: Adobe Illustrator 19.2.1, SVG Export Plug-In . SVG Version: 6.00 Build 0)  -->
<svg version="1.1" id="Layer_1" xmlns="http://www.w3.org/2000/svg" xmlns:xlink="http://www.w3.org/1999/xlink" x="0px" y="0px"
	 viewBox="0 0 492.4 138" style="enable-background:new 0 0 492.4 138;" xml:space="preserve">
<style type="text/css">
	.st0{fill:#999999;}
	.st1{fill:none;}
	.st2{font-family:'Arial-BoldMT';}
	.st3{font-size:108.2098px;}
</style>
<g>
	<polyline class="st0" points="83.6,14.5 69,0 54.4,14.5 69,29.2 69,29.2 83.6,14.5 	"/>
	<polyline class="st0" points="123.5,54.4 108.9,69 123.5,83.6 123.5,83.6 138.1,69 123.5,54.4 	"/>
	<polyline class="st0" points="29.2,69 14.6,54.4 14.6,54.4 0,69 14.6,83.6 14.6,83.6 29.2,69 	"/>
	<polyline class="st0" points="54.4,123.5 69,138 83.6,123.5 69,108.8 54.4,123.5 	"/>
	<polyline class="st0" points="49.1,34.5 54.4,14.5 54.4,14.5 34.5,9.2 29.2,29.2 49.1,34.5 	"/>
	<polyline class="st0" points="108.9,29.2 103.5,9.2 83.6,14.5 89,34.5 89,34.5 108.9,29.2 	"/>
	<polyline class="st0" points="108.9,29.2 103.5,49.1 103.5,49.1 123.5,54.4 123.5,54.4 128.8,34.5 108.9,29.2 	"/>
	<polyline class="st0" points="29.2,108.8 9.2,103.5 14.6,83.6 34.5,88.9 34.5,88.9 29.2,108.8 	"/>
	<polyline class="st0" points="83.6,123.5 89,103.5 108.9,108.8 108.9,108.8 103.5,128.8 83.6,123.5 	"/>
	<polyline class="st0" points="14.6,54.4 9.2,34.5 29.2,29.2 34.5,49.1 34.5,49.1 14.6,54.4 	"/>
	<polyline class="st0" points="123.5,83.6 103.5,88.9 103.5,88.9 108.9,108.8 108.9,108.8 128.8,103.5 123.5,83.6 	"/>
	<polyline class="st0" points="29.2,108.8 49.1,103.5 54.4,123.5 54.4,123.5 34.5,128.8 29.2,108.8 	"/>
	<polyline class="st0" points="41.8,61.7 34.5,49.1 21.8,56.4 29.2,69 41.8,61.7 	"/>
	<polyline class="st0" points="89,49.1 103.5,49.1 103.5,34.5 89,34.5 89,49.1 	"/>
	<polyline class="st0" points="81.7,116.1 81.7,116.1 89,103.5 	"/>
	<polyline class="st0" points="89,103.5 76.3,96.2 76.3,96.2 69,108.8 81.7,116.1 	"/>
	<polyline class="st0" points="49.1,49.1 49.1,34.5 34.5,34.5 34.5,49.1 49.1,49.1 	"/>
	<polyline class="st0" points="96.2,61.7 108.9,69 116.1,56.4 103.5,49.1 96.2,61.7 	"/>
	<polyline class="st0" points="61.7,96.2 49.1,103.5 56.4,116.1 69,108.8 61.7,96.2 	"/>
	<polyline class="st0" points="61.7,41.8 69,29.2 56.4,21.9 49.1,34.5 61.7,41.8 	"/>
	<polyline class="st0" points="41.8,76.3 34.5,88.9 21.8,81.6 29.2,69 41.8,76.3 	"/>
	<polyline class="st0" points="96.2,76.3 103.5,88.9 116.1,81.6 108.9,69 96.2,76.3 	"/>
	<polyline class="st0" points="76.3,41.8 69,29.2 81.7,21.9 89,34.5 76.3,41.8 	"/>
	<polyline class="st0" points="49.1,88.9 34.5,88.9 34.5,103.5 49.1,103.5 49.1,88.9 	"/>
	<polyline class="st0" points="89,88.9 103.5,88.9 103.5,103.5 89,103.5 89,88.9 	"/>
	<polyline class="st0" points="96.2,61.7 98.9,51.8 89,49.1 86.3,59 86.3,59 96.2,61.7 	"/>
	<polyline class="st0" points="61.7,96.2 69,103.5 76.3,96.2 69,88.9 61.7,96.2 	"/>
	<polyline class="st0" points="59.1,86.2 49.1,88.9 51.8,98.9 61.7,96.2 59.1,86.2 	"/>
	<polyline class="st0" points="51.8,59 41.8,61.7 39.1,51.8 49.1,49.1 49.1,49.1 51.8,59 	"/>
	<polyline class="st0" points="51.8,39.1 61.7,41.8 59.1,51.8 59.1,51.8 49.1,49.1 51.8,39.1 	"/>
	<polyline class="st0" points="51.8,79 49.1,88.9 39.1,86.2 41.8,76.3 51.8,79 	"/>
	<polyline class="st0" points="49.1,69 41.8,61.7 34.5,69 41.8,76.3 41.8,76.3 49.1,69 	"/>
	<polyline class="st0" points="69,49.1 61.7,41.8 69,34.5 69,34.5 76.3,41.8 69,49.1 	"/>
	<polyline class="st0" points="76.3,41.8 86.3,39.1 89,49.1 79,51.8 79,51.8 76.3,41.8 	"/>
	<polyline class="st0" points="103.5,69 96.2,76.3 89,69 96.2,61.7 103.5,69 	"/>
	<polyline class="st0" points="98.9,86.2 96.2,76.3 86.3,78.9 86.3,79 89,88.9 98.9,86.2 	"/>
	<polyline class="st0" points="79,86.2 76.3,96.2 86.3,98.9 89,88.9 89,88.9 79,86.2 	"/>
	<line class="st1" x1="79.2" y1="52.1" x2="79" y2="51.8"/>
	<line class="st1" x1="52.1" y1="58.8" x2="51.8" y2="59"/>
	<polyline class="st0" points="89,68.8 92.6,62.7 86.3,59 86.3,59 82.6,65.4 82.6,65.4 89,68.8 	"/>
	<polyline class="st0" points="82.6,72.6 86.3,79 86.3,79 92.6,75.3 89,69 89,69 82.6,72.6 	"/>
	<polyline class="st0" points="59.1,86.2 59.1,79 59.1,79 51.8,79 52.2,78.7 52.2,85.9 59.3,85.9 	"/>
	<polyline class="st0" points="65.4,55.3 69,49.1 69,49.1 62.7,45.5 59.1,51.8 59.1,51.8 65.4,55.3 	"/>
	<polyline class="st0" points="72.6,55.3 79,51.8 79,51.8 75.4,45.5 69,49.1 69,49.1 72.6,55.3 	"/>
	<polyline class="st0" points="85.8,59 79,59 79,59 79,51.9 79,51.9 85.8,52 85.8,52 85.8,59 	"/>
	<polyline class="st0" points="79,85.9 79,79 79,79 85.8,79 85.8,79 85.8,85.9 79,85.9 	"/>
	<polyline class="st0" points="69,88.9 65.4,82.6 65.4,82.6 59.1,86.2 59.1,86.2 62.7,92.5 69.1,88.9 	"/>
	<polyline class="st0" points="52.2,59 59.1,59 59.1,59 59.1,52 59.1,52 52.2,52 52.2,52 52.2,59 	"/>
	<polyline class="st0" points="51.8,59 45.4,62.7 49.1,69 49.1,69 55.4,65.4 55.6,65.3 52.2,59.3 	"/>
	<polyline class="st0" points="55.4,72.6 49.1,69 49.1,68.9 45.4,75.3 51.8,78.9 51.8,79 55.5,72.6 	"/>
	<polyline class="st0" points="69.3,88.6 72.7,82.6 78.8,85.9 78.8,85.9 75.1,91.8 75.1,91.8 69.3,88.6 	"/>
	<line class="st1" x1="77.6" y1="74" x2="77.8" y2="74"/>
	<polyline class="st0" points="79,78.8 83.8,77.5 82.6,72.7 82.6,72.7 77.7,74 77.7,74 79,78.8 	"/>
	<polyline class="st0" points="59.1,79 60.4,84 65.4,82.6 65.4,82.6 64.1,77.7 64.1,77.7 59.1,79 	"/>
	<polyline class="st0" points="78.9,58.9 77.6,54 72.7,55.4 72.7,55.4 74,60.3 74,60.3 78.9,58.9 	"/>
	<polyline class="st0" points="59.1,59.2 54.3,60.5 55.5,65.3 55.5,65.3 60.4,64 60.4,64 59.1,59.2 	"/>
	<polyline class="st0" points="79.1,79.1 77.8,84 72.7,82.6 72.7,82.6 74,77.7 74,77.7 79.1,79.1 	"/>
	<polyline class="st0" points="59.1,78.8 54.3,77.5 55.5,72.6 55.5,72.6 60.4,73.9 60.4,73.9 59.1,78.8 	"/>
	<polyline class="st0" points="79,59 83.9,60.4 82.7,65.4 82.7,65.4 77.6,64 77.6,64 79,59 	"/>
	<polyline class="st0" points="58.8,58.7 60.1,53.6 65.5,55.1 65.5,55.1 64,60.4 64,60.4 58.8,58.7 	"/>
	<polyline class="st0" points="82.7,72.7 86.3,69.1 82.6,65.4 82.6,65.4 79,69 79,69 82.7,72.7 	"/>
	<polyline class="st0" points="72.7,82.6 69,86.2 65.4,82.6 65.4,82.6 68.9,79 68.9,79 72.7,82.6 	"/>
	<polyline class="st0" points="55.4,65.4 51.9,68.9 55.5,72.6 55.5,72.6 59,68.9 59,68.9 55.4,65.4 	"/>
	<polyline class="st0" points="65.4,55.2 69,51.5 72.6,55.3 69,58.9 69,58.9 65.4,55.2 	"/>
	<polyline class="st0" points="69.1,59 72.2,57.2 74,60.3 74,60.3 70.9,62.1 70.9,62.1 69.1,59 	"/>
	<polyline class="st0" points="59.1,69 57.2,65.8 60.3,64 60.3,64 62.1,67.1 62.1,67.1 59.1,69 	"/>
	<polyline class="st0" points="69,78.9 65.9,80.7 64.1,77.6 64.1,77.6 67.2,75.8 67.2,75.8 69,78.9 	"/>
	<polyline class="st0" points="77.8,74 80.9,72.2 79,69 76,70.7 76,70.8 77.8,74 	"/>
	<polyline class="st0" points="60.5,64 60.5,60.3 64,60.3 64,60.3 64,64 64,64 60.5,64 	"/>
	<polyline class="st0" points="64.1,73.9 60.5,73.9 60.5,73.9 60.5,77.7 64.1,77.7 64.1,77.7 64.1,73.9 	"/>
	<polyline class="st0" points="77.7,73.9 77.7,77.6 74,77.6 74,77.6 74,73.9 74,73.9 77.7,73.9 	"/>
	<polyline class="st0" points="74,64 74,60.3 74,60.3 77.7,60.3 77.7,64 77.7,64 74,64 	"/>
	<polyline class="st0" points="59.1,69.1 57.4,72.1 60.5,73.9 60.5,73.9 62.1,70.8 62.1,70.8 59.1,69.1 	"/>
	<polyline class="st0" points="70.8,75.8 69,78.9 69,78.9 72.2,80.8 74,77.7 74,77.7 70.8,75.8 	"/>
	<polyline class="st0" points="75.9,67.2 77.6,64 77.6,64 80.8,65.8 79,69 79,69 75.8,67.2 	"/>
	<polyline class="st0" points="67.3,62.1 64,60.4 65.9,57.2 69,59.1 69,59.1 67.3,62.1 	"/>
</g>
<text transform="matrix(1 0 0 1 139.4856 110.25)" class="st0 st2 st3">ACTFL</text>
</svg>
