<?xml version="1.0" encoding="utf-8"?>
<!-- Generator: Adobe Illustrator 18.1.1, SVG Export Plug-In . SVG Version: 6.00 Build 0)  -->
<svg version="1.1" id="Layer_1" xmlns="http://www.w3.org/2000/svg" xmlns:xlink="http://www.w3.org/1999/xlink" x="0px" y="0px"
	 viewBox="0 0 214.8 51.7" enable-background="new 0 0 214.8 51.7" xml:space="preserve">
<path fill="#FFFFFF" d="M0,0h15.9v38.8h24.9v12.7H0V0z M38.9,0h48.4v12.7H71.1v38.8H55.2V12.7H38.9V0z M93.4,0h16v51.5h-16V0z"/>
<path fill="#FFFFFF" d="M121.2,32V21.7h-3.7v-2.1h9.9v2.1h-3.7V32H121.2z M118.3,51.5V39.1h2.5v12.4H118.3z M118.5,12.5V0.1h2.5
	v10.2h6.2v2.1H118.5z M131,51.5h-2.4v-4.6c0-1-0.1-1.6-0.2-1.9c-0.1-0.3-0.3-0.5-0.5-0.7c-0.2-0.2-0.5-0.2-0.8-0.2
	c-0.4,0-0.8,0.1-1.1,0.3c-0.3,0.2-0.6,0.5-0.7,0.9c-0.1,0.4-0.2,1.1-0.2,2.1v4.1h-2.4v-9h2.2v1.3c0.8-1,1.8-1.5,3-1.5
	c0.5,0,1,0.1,1.4,0.3c0.4,0.2,0.8,0.4,1,0.7c0.2,0.3,0.4,0.6,0.5,1c0.1,0.4,0.1,0.9,0.1,1.6V51.5z M132.5,29.1l2.4,0.4
	c-0.3,0.9-0.8,1.5-1.4,2c-0.7,0.5-1.5,0.7-2.5,0.7c-1.6,0-2.7-0.5-3.5-1.5c-0.6-0.8-0.9-1.9-0.9-3.1c0-1.5,0.4-2.7,1.2-3.5
	c0.8-0.8,1.8-1.3,3-1.3c1.3,0,2.4,0.4,3.2,1.3c0.8,0.9,1.1,2.2,1.1,4.1h-6c0,0.7,0.2,1.3,0.6,1.6c0.4,0.4,0.8,0.6,1.4,0.6
	c0.4,0,0.7-0.1,0.9-0.3C132.2,29.9,132.3,29.6,132.5,29.1z M130.3,6.2l-2.2-0.4c0.2-0.9,0.7-1.5,1.3-1.9c0.6-0.4,1.5-0.6,2.6-0.6
	c1.1,0,1.9,0.1,2.4,0.4c0.5,0.3,0.9,0.6,1.1,1c0.2,0.4,0.3,1.1,0.3,2.1l0,2.8c0,0.8,0,1.4,0.1,1.7c0.1,0.4,0.2,0.8,0.4,1.2H134
	c-0.1-0.2-0.1-0.4-0.2-0.7c0-0.1-0.1-0.2-0.1-0.3c-0.4,0.4-0.8,0.7-1.3,0.9c-0.5,0.2-1,0.3-1.5,0.3c-0.9,0-1.7-0.3-2.2-0.8
	c-0.5-0.5-0.8-1.1-0.8-1.9c0-0.5,0.1-1,0.4-1.4c0.2-0.4,0.6-0.7,1-0.9c0.4-0.2,1.1-0.4,1.9-0.6c1.1-0.2,1.9-0.4,2.3-0.6V6.4
	c0-0.5-0.1-0.8-0.3-1c-0.2-0.2-0.7-0.3-1.3-0.3c-0.4,0-0.8,0.1-1,0.2C130.7,5.5,130.5,5.8,130.3,6.2z M132.6,26.7
	c0-0.7-0.2-1.2-0.5-1.6c-0.3-0.4-0.8-0.5-1.2-0.5c-0.5,0-0.9,0.2-1.3,0.6c-0.3,0.4-0.5,0.9-0.5,1.5H132.6z M133.5,8.1
	c-0.3,0.1-0.8,0.2-1.4,0.4c-0.7,0.1-1.1,0.3-1.3,0.4c-0.3,0.2-0.5,0.5-0.5,0.8c0,0.3,0.1,0.6,0.4,0.9c0.2,0.2,0.6,0.4,0.9,0.4
	c0.4,0,0.8-0.1,1.2-0.4c0.3-0.2,0.5-0.5,0.6-0.8c0.1-0.2,0.1-0.6,0.1-1.2V8.1z M137.1,42.5v1.9h-1.6V48c0,0.7,0,1.2,0,1.3
	c0,0.1,0.1,0.2,0.2,0.3c0.1,0.1,0.2,0.1,0.4,0.1c0.2,0,0.5-0.1,1-0.2l0.2,1.8c-0.6,0.2-1.2,0.4-1.9,0.4c-0.4,0-0.8-0.1-1.2-0.2
	c-0.3-0.1-0.6-0.3-0.8-0.6c-0.2-0.2-0.3-0.5-0.3-0.9c-0.1-0.3-0.1-0.8-0.1-1.7v-3.9H132v-1.9h1.1v-1.8l2.4-1.4v3.2H137.1z
	 M135.6,29.4L138,29c0.1,0.5,0.3,0.8,0.6,1.1c0.3,0.2,0.7,0.4,1.3,0.4c0.6,0,1.1-0.1,1.4-0.3c0.2-0.2,0.3-0.4,0.3-0.6
	c0-0.2-0.1-0.3-0.2-0.4c-0.1-0.1-0.4-0.2-0.8-0.3c-1.9-0.4-3.1-0.8-3.6-1.2c-0.7-0.5-1.1-1.2-1.1-2c0-0.8,0.3-1.4,0.9-2
	c0.6-0.5,1.6-0.8,2.9-0.8c1.2,0,2.1,0.2,2.7,0.6c0.6,0.4,1,1,1.2,1.8l-2.2,0.4c-0.1-0.3-0.3-0.6-0.5-0.8c-0.3-0.2-0.7-0.3-1.1-0.3
	c-0.6,0-1.1,0.1-1.3,0.3c-0.2,0.1-0.3,0.3-0.3,0.5c0,0.2,0.1,0.3,0.2,0.4c0.2,0.2,1,0.4,2.2,0.7c1.3,0.3,2.2,0.6,2.7,1.1
	c0.5,0.4,0.7,1,0.7,1.8c0,0.8-0.3,1.5-1,2.1c-0.7,0.6-1.7,0.9-3.1,0.9c-1.2,0-2.2-0.2-2.9-0.7C136.3,30.9,135.9,30.3,135.6,29.4z
	 M143.5,48.6l2.4,0.4c-0.3,0.9-0.8,1.5-1.4,2c-0.7,0.5-1.5,0.7-2.5,0.7c-1.6,0-2.7-0.5-3.5-1.5c-0.6-0.8-0.9-1.9-0.9-3.1
	c0-1.5,0.4-2.7,1.2-3.5c0.8-0.8,1.8-1.3,3-1.3c1.3,0,2.4,0.4,3.2,1.3c0.8,0.9,1.1,2.2,1.1,4.1h-6c0,0.7,0.2,1.3,0.6,1.6
	c0.4,0.4,0.8,0.6,1.4,0.6c0.4,0,0.7-0.1,0.9-0.3C143.2,49.4,143.4,49.1,143.5,48.6z M145.9,12.5h-2.4V7.9c0-1-0.1-1.6-0.2-1.9
	c-0.1-0.3-0.3-0.5-0.5-0.7c-0.2-0.2-0.5-0.2-0.8-0.2c-0.4,0-0.8,0.1-1.1,0.3c-0.3,0.2-0.6,0.5-0.7,0.9c-0.1,0.4-0.2,1.1-0.2,2.1v4.1
	h-2.4v-9h2.2v1.3c0.8-1,1.8-1.5,3-1.5c0.5,0,1,0.1,1.4,0.3c0.4,0.2,0.8,0.4,1,0.7c0.2,0.3,0.4,0.6,0.5,1c0.1,0.4,0.1,0.9,0.1,1.6
	V12.5z M143.6,46.2c0-0.7-0.2-1.2-0.5-1.6c-0.3-0.4-0.8-0.5-1.2-0.5c-0.5,0-0.9,0.2-1.3,0.6c-0.3,0.4-0.5,0.9-0.5,1.5H143.6z
	 M149.8,23v1.9h-1.6v3.6c0,0.7,0,1.2,0,1.3c0,0.1,0.1,0.2,0.2,0.3c0.1,0.1,0.2,0.1,0.4,0.1c0.2,0,0.5-0.1,1-0.2l0.2,1.8
	c-0.6,0.2-1.2,0.4-1.9,0.4c-0.4,0-0.8-0.1-1.2-0.2c-0.3-0.1-0.6-0.3-0.8-0.6c-0.2-0.2-0.3-0.5-0.3-0.9c-0.1-0.3-0.1-0.8-0.1-1.7
	v-3.9h-1.1V23h1.1v-1.8l2.4-1.4V23H149.8z M149.8,51.5h-2.4v-9h2.2v1.3c0.4-0.6,0.7-1,1-1.2c0.3-0.2,0.6-0.3,1-0.3
	c0.5,0,1.1,0.1,1.6,0.4l-0.7,2.1c-0.4-0.3-0.8-0.4-1.1-0.4c-0.3,0-0.6,0.1-0.8,0.3c-0.2,0.2-0.4,0.5-0.5,1c-0.1,0.5-0.2,1.5-0.2,3
	V51.5z M147.7,13.3c0-0.1,0-0.2,0-0.3l2.7,0.3c0,0.3,0.1,0.5,0.3,0.7c0.2,0.2,0.6,0.3,1.1,0.3c0.6,0,1.1-0.1,1.4-0.3
	c0.2-0.1,0.4-0.3,0.5-0.6c0.1-0.2,0.1-0.6,0.1-1.1V11c-0.7,1-1.6,1.5-2.7,1.5c-1.2,0-2.2-0.5-2.9-1.5c-0.6-0.8-0.8-1.8-0.8-3
	c0-1.5,0.4-2.7,1.1-3.5c0.7-0.8,1.6-1.2,2.7-1.2c1.1,0,2,0.5,2.8,1.5V3.5h2.2v8.1c0,1.1-0.1,1.9-0.3,2.4c-0.2,0.5-0.4,0.9-0.7,1.2
	c-0.3,0.3-0.7,0.5-1.3,0.7c-0.5,0.2-1.2,0.3-2,0.3c-1.5,0-2.6-0.3-3.2-0.8C148,14.8,147.7,14.1,147.7,13.3L147.7,13.3z M149.8,7.8
	c0,1,0.2,1.7,0.6,2.1c0.4,0.4,0.8,0.7,1.4,0.7c0.6,0,1.1-0.2,1.5-0.7c0.4-0.5,0.6-1.1,0.6-2c0-0.9-0.2-1.6-0.6-2.1
	c-0.4-0.5-0.9-0.7-1.5-0.7c-0.6,0-1,0.2-1.4,0.7C150,6.2,149.8,6.9,149.8,7.8z M151,21.8v-2.2h2.4v2.2H151z M151,32v-9h2.4v9H151z
	 M162,51.5h-2.4v-4.6c0-1-0.1-1.6-0.2-1.9c-0.1-0.3-0.3-0.5-0.5-0.7c-0.2-0.2-0.5-0.2-0.8-0.2c-0.4,0-0.8,0.1-1.1,0.3
	c-0.3,0.2-0.6,0.5-0.7,0.9c-0.1,0.4-0.2,1.1-0.2,2.1v4.1h-2.4v-9h2.2v1.3c0.8-1,1.8-1.5,3-1.5c0.5,0,1,0.1,1.4,0.3
	c0.4,0.2,0.8,0.4,1,0.7c0.2,0.3,0.4,0.6,0.5,1c0.1,0.4,0.1,0.9,0.1,1.6V51.5z M163.6,32h-2.4v-4.6c0-1-0.1-1.6-0.2-1.9
	c-0.1-0.3-0.3-0.5-0.5-0.7c-0.2-0.2-0.5-0.2-0.8-0.2c-0.4,0-0.8,0.1-1.1,0.3c-0.3,0.2-0.6,0.5-0.7,0.9c-0.1,0.4-0.2,1.1-0.2,2.1V32
	h-2.4v-9h2.2v1.3c0.8-1,1.8-1.5,3-1.5c0.5,0,1,0.1,1.4,0.3c0.4,0.2,0.8,0.4,1,0.7c0.2,0.3,0.4,0.6,0.5,1c0.1,0.4,0.1,0.9,0.1,1.6V32
	z M164,12.5v-1.3c-0.3,0.5-0.8,0.9-1.3,1.1c-0.5,0.3-1.1,0.4-1.7,0.4c-0.6,0-1.1-0.1-1.6-0.4c-0.5-0.3-0.8-0.6-1-1.1
	c-0.2-0.5-0.3-1.1-0.3-2V3.5h2.4v4.1c0,1.3,0,2,0.1,2.3c0.1,0.3,0.2,0.5,0.5,0.7c0.2,0.2,0.5,0.2,0.9,0.2c0.4,0,0.8-0.1,1.1-0.3
	c0.3-0.2,0.5-0.5,0.7-0.8c0.1-0.3,0.2-1.1,0.2-2.4V3.5h2.4v9H164z M165.7,45.2l-2.2-0.4c0.2-0.9,0.7-1.5,1.3-1.9
	c0.6-0.4,1.5-0.6,2.6-0.6c1.1,0,1.9,0.1,2.4,0.4c0.5,0.3,0.9,0.6,1.1,1c0.2,0.4,0.3,1.1,0.3,2.1l0,2.8c0,0.8,0,1.4,0.1,1.7
	c0.1,0.4,0.2,0.8,0.4,1.2h-2.4c-0.1-0.2-0.1-0.4-0.2-0.7c0-0.1-0.1-0.2-0.1-0.3c-0.4,0.4-0.8,0.7-1.3,0.9c-0.5,0.2-1,0.3-1.5,0.3
	c-0.9,0-1.7-0.3-2.2-0.8c-0.5-0.5-0.8-1.1-0.8-1.9c0-0.5,0.1-1,0.4-1.4c0.2-0.4,0.6-0.7,1-0.9c0.4-0.2,1.1-0.4,1.9-0.6
	c1.1-0.2,1.9-0.4,2.3-0.6v-0.2c0-0.5-0.1-0.8-0.3-1c-0.2-0.2-0.7-0.3-1.3-0.3c-0.4,0-0.8,0.1-1,0.2
	C166.1,44.5,165.9,44.8,165.7,45.2z M165.3,32.8c0-0.1,0-0.2,0-0.3l2.7,0.3c0,0.3,0.1,0.5,0.3,0.7c0.2,0.2,0.6,0.3,1.1,0.3
	c0.6,0,1.1-0.1,1.4-0.3c0.2-0.1,0.4-0.3,0.5-0.6c0.1-0.2,0.1-0.6,0.1-1.1v-1.3c-0.7,1-1.6,1.5-2.7,1.5c-1.2,0-2.2-0.5-2.9-1.5
	c-0.6-0.8-0.8-1.8-0.8-3c0-1.5,0.4-2.7,1.1-3.5c0.7-0.8,1.6-1.2,2.7-1.2c1.1,0,2,0.5,2.8,1.5V23h2.2V31c0,1.1-0.1,1.9-0.3,2.4
	c-0.2,0.5-0.4,0.9-0.7,1.2c-0.3,0.3-0.7,0.5-1.3,0.7c-0.5,0.2-1.2,0.3-2,0.3c-1.5,0-2.6-0.3-3.2-0.8
	C165.7,34.3,165.3,33.6,165.3,32.8L165.3,32.8z M168.9,47.2c-0.3,0.1-0.8,0.2-1.4,0.4c-0.7,0.1-1.1,0.3-1.3,0.4
	c-0.3,0.2-0.5,0.5-0.5,0.8c0,0.3,0.1,0.6,0.4,0.9c0.2,0.2,0.6,0.4,0.9,0.4c0.4,0,0.8-0.1,1.2-0.4c0.3-0.2,0.5-0.5,0.6-0.8
	c0.1-0.2,0.1-0.6,0.1-1.2V47.2z M167.5,27.3c0,1,0.2,1.7,0.6,2.1c0.4,0.4,0.8,0.7,1.4,0.7c0.6,0,1.1-0.2,1.5-0.7
	c0.4-0.5,0.6-1.1,0.6-2c0-0.9-0.2-1.6-0.6-2.1c-0.4-0.5-0.9-0.7-1.5-0.7c-0.6,0-1,0.2-1.4,0.7C167.7,25.7,167.5,26.4,167.5,27.3z
	 M170,6.2l-2.2-0.4c0.2-0.9,0.7-1.5,1.3-1.9c0.6-0.4,1.5-0.6,2.6-0.6c1.1,0,1.9,0.1,2.4,0.4c0.5,0.3,0.9,0.6,1.1,1
	c0.2,0.4,0.3,1.1,0.3,2.1l0,2.8c0,0.8,0,1.4,0.1,1.7c0.1,0.4,0.2,0.8,0.4,1.2h-2.4c-0.1-0.2-0.1-0.4-0.2-0.7c0-0.1-0.1-0.2-0.1-0.3
	c-0.4,0.4-0.8,0.7-1.3,0.9c-0.5,0.2-1,0.3-1.5,0.3c-0.9,0-1.7-0.3-2.2-0.8c-0.5-0.5-0.8-1.1-0.8-1.9c0-0.5,0.1-1,0.4-1.4
	c0.2-0.4,0.6-0.7,1-0.9c0.4-0.2,1.1-0.4,1.9-0.6c1.1-0.2,1.9-0.4,2.3-0.6V6.4c0-0.5-0.1-0.8-0.3-1c-0.2-0.2-0.7-0.3-1.3-0.3
	c-0.4,0-0.8,0.1-1,0.2C170.4,5.5,170.2,5.8,170,6.2z M173.2,8.1c-0.3,0.1-0.8,0.2-1.4,0.4c-0.7,0.1-1.1,0.3-1.3,0.4
	c-0.3,0.2-0.5,0.5-0.5,0.8c0,0.3,0.1,0.6,0.4,0.9c0.2,0.2,0.6,0.4,0.9,0.4c0.4,0,0.8-0.1,1.2-0.4c0.3-0.2,0.5-0.5,0.6-0.8
	c0.1-0.2,0.1-0.6,0.1-1.2V8.1z M177.3,42.5v1.9h-1.6V48c0,0.7,0,1.2,0,1.3c0,0.1,0.1,0.2,0.2,0.3c0.1,0.1,0.2,0.1,0.4,0.1
	c0.2,0,0.5-0.1,1-0.2l0.2,1.8c-0.6,0.2-1.2,0.4-1.9,0.4c-0.4,0-0.8-0.1-1.2-0.2c-0.3-0.1-0.6-0.3-0.8-0.6c-0.2-0.2-0.3-0.5-0.3-0.9
	c-0.1-0.3-0.1-0.8-0.1-1.7v-3.9h-1.1v-1.9h1.1v-1.8l2.4-1.4v3.2H177.3z M177.2,13.3c0-0.1,0-0.2,0-0.3l2.7,0.3
	c0,0.3,0.1,0.5,0.3,0.7c0.2,0.2,0.6,0.3,1.1,0.3c0.6,0,1.1-0.1,1.4-0.3c0.2-0.1,0.4-0.3,0.5-0.6c0.1-0.2,0.1-0.6,0.1-1.1V11
	c-0.7,1-1.6,1.5-2.7,1.5c-1.2,0-2.2-0.5-2.9-1.5c-0.6-0.8-0.8-1.8-0.8-3c0-1.5,0.4-2.7,1.1-3.5c0.7-0.8,1.6-1.2,2.7-1.2
	c1.1,0,2,0.5,2.8,1.5V3.5h2.2v8.1c0,1.1-0.1,1.9-0.3,2.4c-0.2,0.5-0.4,0.9-0.7,1.2c-0.3,0.3-0.7,0.5-1.3,0.7c-0.5,0.2-1.2,0.3-2,0.3
	c-1.5,0-2.6-0.3-3.2-0.8C177.5,14.8,177.2,14.1,177.2,13.3L177.2,13.3z M178.5,41.3v-2.2h2.4v2.2H178.5z M178.5,51.5v-9h2.4v9H178.5
	z M179.4,7.8c0,1,0.2,1.7,0.6,2.1c0.4,0.4,0.8,0.7,1.4,0.7c0.6,0,1.1-0.2,1.5-0.7c0.4-0.5,0.6-1.1,0.6-2c0-0.9-0.2-1.6-0.6-2.1
	c-0.4-0.5-0.9-0.7-1.5-0.7c-0.6,0-1,0.2-1.4,0.7C179.5,6.2,179.4,6.9,179.4,7.8z M182.3,46.9c0-0.8,0.2-1.6,0.6-2.3
	c0.4-0.7,0.9-1.3,1.7-1.7c0.7-0.4,1.5-0.6,2.4-0.6c1.4,0,2.5,0.4,3.3,1.3c0.9,0.9,1.3,2,1.3,3.3c0,1.4-0.4,2.5-1.3,3.4
	c-0.9,0.9-2,1.3-3.3,1.3c-0.8,0-1.6-0.2-2.4-0.6c-0.7-0.4-1.3-0.9-1.7-1.6S182.3,47.9,182.3,46.9z M184.8,47c0,0.9,0.2,1.6,0.6,2
	c0.4,0.5,0.9,0.7,1.6,0.7c0.6,0,1.1-0.2,1.6-0.7c0.4-0.5,0.6-1.2,0.6-2.1c0-0.9-0.2-1.6-0.6-2c-0.4-0.5-0.9-0.7-1.6-0.7
	c-0.6,0-1.1,0.2-1.6,0.7C185,45.4,184.8,46.1,184.8,47z M192.8,9.6l2.4,0.4c-0.3,0.9-0.8,1.5-1.4,2c-0.7,0.5-1.5,0.7-2.5,0.7
	c-1.6,0-2.7-0.5-3.5-1.5c-0.6-0.8-0.9-1.9-0.9-3.1c0-1.5,0.4-2.7,1.2-3.5c0.8-0.8,1.8-1.3,3-1.3c1.3,0,2.4,0.4,3.2,1.3
	c0.8,0.9,1.1,2.2,1.1,4.1h-6c0,0.7,0.2,1.3,0.6,1.6c0.4,0.4,0.8,0.6,1.4,0.6c0.4,0,0.7-0.1,0.9-0.3C192.5,10.4,192.7,10,192.8,9.6z
	 M193,7.2c0-0.7-0.2-1.2-0.5-1.6c-0.3-0.4-0.8-0.5-1.2-0.5c-0.5,0-0.9,0.2-1.3,0.6c-0.3,0.4-0.5,0.9-0.5,1.5H193z M201.2,51.5h-2.4
	v-4.6c0-1-0.1-1.6-0.2-1.9c-0.1-0.3-0.3-0.5-0.5-0.7c-0.2-0.2-0.5-0.2-0.8-0.2c-0.4,0-0.8,0.1-1.1,0.3c-0.3,0.2-0.6,0.5-0.7,0.9
	c-0.1,0.4-0.2,1.1-0.2,2.1v4.1H193v-9h2.2v1.3c0.8-1,1.8-1.5,3-1.5c0.5,0,1,0.1,1.4,0.3c0.4,0.2,0.8,0.4,1,0.7
	c0.2,0.3,0.4,0.6,0.5,1c0.1,0.4,0.1,0.9,0.1,1.6V51.5z M205,45.2l-2.2-0.4c0.2-0.9,0.7-1.5,1.3-1.9c0.6-0.4,1.5-0.6,2.6-0.6
	c1.1,0,1.9,0.1,2.4,0.4c0.5,0.3,0.9,0.6,1.1,1c0.2,0.4,0.3,1.1,0.3,2.1l0,2.8c0,0.8,0,1.4,0.1,1.7c0.1,0.4,0.2,0.8,0.4,1.2h-2.4
	c-0.1-0.2-0.1-0.4-0.2-0.7c0-0.1-0.1-0.2-0.1-0.3c-0.4,0.4-0.8,0.7-1.3,0.9c-0.5,0.2-1,0.3-1.5,0.3c-0.9,0-1.7-0.3-2.2-0.8
	c-0.5-0.5-0.8-1.1-0.8-1.9c0-0.5,0.1-1,0.4-1.4c0.2-0.4,0.6-0.7,1-0.9c0.4-0.2,1.1-0.4,1.9-0.6c1.1-0.2,1.9-0.4,2.3-0.6v-0.2
	c0-0.5-0.1-0.8-0.3-1c-0.2-0.2-0.7-0.3-1.3-0.3c-0.4,0-0.8,0.1-1,0.2C205.3,44.5,205.1,44.8,205,45.2z M208.2,47.2
	c-0.3,0.1-0.8,0.2-1.4,0.4c-0.7,0.1-1.1,0.3-1.3,0.4c-0.3,0.2-0.5,0.5-0.5,0.8c0,0.3,0.1,0.6,0.4,0.9c0.2,0.2,0.6,0.4,0.9,0.4
	c0.4,0,0.8-0.1,1.2-0.4c0.3-0.2,0.5-0.5,0.6-0.8c0.1-0.2,0.1-0.6,0.1-1.2V47.2z M212.4,51.5V39.1h2.4v12.4H212.4z"/>
</svg>
